<svg xmlns="http://www.w3.org/2000/svg" viewBox="0 0 147.95 21"><defs><style>.cls-1{fill:#70b9dd;}.cls-2{fill:#2591cf;}.cls-3{fill:#41a9dc;}.cls-4{fill:#2499d5;}.cls-5{fill:#59595c;}.cls-6{fill:#0094de;}</style></defs><title>EP</title><g id="Warstwa_2" data-name="Warstwa 2"><g id="Warstwa_1-2" data-name="Warstwa 1"><polygon class="cls-1" points="3.72 8.36 18.18 16.7 18.18 21 0 10.5 3.72 8.36"/><polygon class="cls-2" points="18.18 3.7 14.99 1.84 18.18 0 18.18 3.7"/><polygon class="cls-3" points="8.71 5.47 18.18 10.94 18.18 15.23 4.99 7.62 8.71 5.47"/><polygon class="cls-4" points="13.71 2.58 18.18 5.17 18.18 9.47 9.99 4.73 13.71 2.58"/><path class="cls-5" d="M26.08,16.51V4.18h9V6.32H28.6V9h5.92v2.11H28.6v3.17h6.78v2.28ZM46.18,6.4V4.18h2.47V6.4Zm0,10.11V7.4h2.47v9.11Zm13-12.33V16.51H56.82V15.28a3.6,3.6,0,0,1-1.19,1.17,3.16,3.16,0,0,1-1.54.37,3.27,3.27,0,0,1-2.72-1.34,5.4,5.4,0,0,1-1-3.48,5.64,5.64,0,0,1,1-3.53,3.39,3.39,0,0,1,4.25-1,3,3,0,0,1,1.14,1.07V4.19ZM52.79,11.9A3.56,3.56,0,0,0,53.32,14a1.73,1.73,0,0,0,1.5.72A1.71,1.71,0,0,0,56.28,14a3.67,3.67,0,0,0,.54-2.11,3.24,3.24,0,0,0-.54-2,1.77,1.77,0,0,0-1.5-.7,1.69,1.69,0,0,0-1.44.72,3.36,3.36,0,0,0-.54,2ZM67,13.75h2.43A3.84,3.84,0,0,1,67.88,16a4.48,4.48,0,0,1-2.72.82A3.92,3.92,0,0,1,62,15.52a5.24,5.24,0,0,1-1.16-3.59A5.1,5.1,0,0,1,62,8.41a3.91,3.91,0,0,1,3.08-1.29,4.14,4.14,0,0,1,3.22,1.23A5.24,5.24,0,0,1,69.44,12v.37a1,1,0,0,1,0,.25H63.36a2.6,2.6,0,0,0,.56,1.6,1.7,1.7,0,0,0,1.37.53,2,2,0,0,0,1-.24,1.71,1.71,0,0,0,.61-.77ZM63.41,11H67a2.09,2.09,0,0,0-.48-1.4,1.75,1.75,0,0,0-1.32-.48A1.67,1.67,0,0,0,64,9.61,2.22,2.22,0,0,0,63.43,11Zm7.71,5.51V7.4H73.5V8.47a3.46,3.46,0,0,1,1.24-1,3.56,3.56,0,0,1,1.54-.33A3,3,0,0,1,78.54,8a3.26,3.26,0,0,1,.75,2.36v6.2H76.83V11a2.3,2.3,0,0,0-.34-1.4,1.28,1.28,0,0,0-1.07-.42,1.82,1.82,0,0,0-1.36.54,2,2,0,0,0-.51,1.4v5.38Zm15.74-3.43h2.4A4,4,0,0,1,88,15.81a4.12,4.12,0,0,1-2.86,1,4,4,0,0,1-3.09-1.27A5.27,5.27,0,0,1,80.93,12,5.15,5.15,0,0,1,82,8.38a4,4,0,0,1,3.16-1.29A4.16,4.16,0,0,1,88,8a3.69,3.69,0,0,1,1.19,2.61H86.79a1.88,1.88,0,0,0-.54-1.11,1.67,1.67,0,0,0-2.34.21l-.07.14A4,4,0,0,0,83.39,12a3.57,3.57,0,0,0,.46,2,1.69,1.69,0,0,0,2.36.36l.11-.09a2.14,2.14,0,0,0,.53-1.23Zm9.54.67h2.43A3.84,3.84,0,0,1,97.32,16a4.48,4.48,0,0,1-2.72.82,3.93,3.93,0,0,1-3.13-1.33,5.24,5.24,0,0,1-1.16-3.59,5.15,5.15,0,0,1,1.14-3.52,3.94,3.94,0,0,1,3.11-1.29,4.12,4.12,0,0,1,3.22,1.23A5.24,5.24,0,0,1,98.91,12v.37a1,1,0,0,1,0,.25H92.82a2.57,2.57,0,0,0,.53,1.6,1.68,1.68,0,0,0,1.37.54,1.93,1.93,0,0,0,1-.25,1.59,1.59,0,0,0,.62-.76ZM92.85,11h3.59A2.15,2.15,0,0,0,96,9.6a1.74,1.74,0,0,0-1.32-.48,1.65,1.65,0,0,0-1.23.48,2.18,2.18,0,0,0-.54,1.4Zm14.34-1.15H110a3.26,3.26,0,0,0,2-.47,2,2,0,0,0,.58-1.6,1.93,1.93,0,0,0-.57-1.58,3,3,0,0,0-1.92-.48h-2.94Zm-1.68,6.69V4.22h4.54a9.48,9.48,0,0,1,1.68.1,3.41,3.41,0,0,1,1,.36,2.74,2.74,0,0,1,1.15,1.23,4.08,4.08,0,0,1,.4,1.88,4,4,0,0,1-.4,1.82,3,3,0,0,1-2.21,1.61,11.78,11.78,0,0,1-2,.11h-2.54v5.23Zm10.61,0v-9h1.46v1.6a3,3,0,0,1,1-1.35,2.46,2.46,0,0,1,1.51-.45h.39V9h-.36a2.48,2.48,0,0,0-1.85.66,2.64,2.64,0,0,0-.62,1.91v5Zm5.69-10.62V4.18h1.48V5.89Zm0,10.61v-9h1.48v9Zm14.73,0V11a3.3,3.3,0,0,0-.37-1.85,1.51,1.51,0,0,0-1.28-.5,2.11,2.11,0,0,0-1.69.68,2.72,2.72,0,0,0-.62,1.89v5.3h-1.53V11a3.13,3.13,0,0,0-.37-1.85,1.46,1.46,0,0,0-1.27-.5,2.1,2.1,0,0,0-1.68.68,2.68,2.68,0,0,0-.62,1.88v5.3h-1.5V7.55H127V8.78a3.11,3.11,0,0,1,2.79-1.49,2.75,2.75,0,0,1,1.43.34,2.63,2.63,0,0,1,1,1.07,3.67,3.67,0,0,1,1.28-1.07,3.49,3.49,0,0,1,1.61-.34,3.4,3.4,0,0,1,1.51.3,2.3,2.3,0,0,1,1,.91,3,3,0,0,1,.28.82,10.77,10.77,0,0,1,.08,1.5v5.65Zm4.93-5.29h4.9a2.75,2.75,0,0,0-.62-1.94,2.67,2.67,0,0,0-3.53,0,3.09,3.09,0,0,0-.75,2Zm4.9,2.4h1.49A3.69,3.69,0,0,1,146.57,16a4,4,0,0,1-2.64.85A3.67,3.67,0,0,1,141,15.6a5.07,5.07,0,0,1-1.07-3.46A5.53,5.53,0,0,1,141,8.56a3.68,3.68,0,0,1,3-1.29,3.83,3.83,0,0,1,2.94,1.19,4.89,4.89,0,0,1,1,3.33v.67h-6.49a3.27,3.27,0,0,0,.7,2.19,2.67,2.67,0,0,0,3.4.3,2.15,2.15,0,0,0,.78-1.33"/><polygon class="cls-6" points="39.3 16.51 36.02 7.42 38.72 7.42 40.59 13.94 42.47 7.42 45.04 7.42 41.78 16.51 39.3 16.51"/></g></g></svg>