<svg xmlns="http://www.w3.org/2000/svg" viewBox="0 0 240.2 55.36"><defs><style>.cls-1{fill:#00a5d9;}</style></defs><title>GEM</title><g id="Warstwa_2" data-name="Warstwa 2"><g id="Warstwa_1-2" data-name="Warstwa 1"><path class="cls-1" d="M17.61,13h5v9.67a14.18,14.18,0,0,1-4.5,2.25,17.47,17.47,0,0,1-5.14.78A14,14,0,0,1,6.34,24.1a11.73,11.73,0,0,1-4.65-4.4A12,12,0,0,1,0,13.35,12,12,0,0,1,1.69,7,11.66,11.66,0,0,1,6.37,2.61,14.18,14.18,0,0,1,13.11,1,14.64,14.64,0,0,1,18.8,2.08a11.17,11.17,0,0,1,4.29,3.06L19.55,8.41a8.2,8.2,0,0,0-6.16-2.69,8.37,8.37,0,0,0-4.06,1A6.81,6.81,0,0,0,6.57,9.37a8,8,0,0,0-1,4,7.9,7.9,0,0,0,1,4A7,7,0,0,0,9.32,20a8.09,8.09,0,0,0,4,1,8.94,8.94,0,0,0,4.29-1Z"/><path class="cls-1" d="M27.38,0H32.7V25.27H27.38Z"/><path class="cls-1" d="M41.16,24.34A9,9,0,0,1,37.57,21a9.26,9.26,0,0,1-1.3-4.87,9.26,9.26,0,0,1,1.3-4.87,8.93,8.93,0,0,1,3.59-3.35,11,11,0,0,1,5.2-1.21,10.81,10.81,0,0,1,5.17,1.21,8.9,8.9,0,0,1,3.58,3.35,9.26,9.26,0,0,1,1.29,4.87A9.26,9.26,0,0,1,55.11,21a9,9,0,0,1-3.58,3.36,10.93,10.93,0,0,1-5.17,1.21A11.11,11.11,0,0,1,41.16,24.34Zm8.55-4.53A5.12,5.12,0,0,0,51,16.11a5.09,5.09,0,0,0-1.31-3.69A4.41,4.41,0,0,0,46.36,11,4.49,4.49,0,0,0,43,12.42a5.1,5.1,0,0,0-1.32,3.69A5.12,5.12,0,0,0,43,19.81a4.49,4.49,0,0,0,3.38,1.38A4.41,4.41,0,0,0,49.71,19.81Z"/><path class="cls-1" d="M75.43,7.85a8.42,8.42,0,0,1,3.28,3.31,9.89,9.89,0,0,1,1.2,4.95,9.93,9.93,0,0,1-1.2,5,8.39,8.39,0,0,1-3.28,3.3,9.4,9.4,0,0,1-4.65,1.18A7.06,7.06,0,0,1,65,23.16v2.11H60V0h5.31V8.89a7.06,7.06,0,0,1,5.52-2.21A9.39,9.39,0,0,1,75.43,7.85Zm-2.22,12a5.12,5.12,0,0,0,1.32-3.7,5.1,5.1,0,0,0-1.32-3.69,4.77,4.77,0,0,0-6.71,0,5.14,5.14,0,0,0-1.31,3.69,5.16,5.16,0,0,0,1.31,3.7,4.77,4.77,0,0,0,6.71,0Z"/><path class="cls-1" d="M97.07,8.7c1.52,1.35,2.29,3.39,2.29,6.12V25.27h-5V23c-1,1.7-2.86,2.56-5.58,2.56a8.6,8.6,0,0,1-3.66-.72,5.41,5.41,0,0,1-2.37-2A5.13,5.13,0,0,1,82,20a4.77,4.77,0,0,1,1.93-4q1.92-1.45,5.94-1.46H94A3.38,3.38,0,0,0,93,11.84a4.64,4.64,0,0,0-3.17-.94,9.13,9.13,0,0,0-2.88.46,7.77,7.77,0,0,0-2.4,1.24L82.63,8.89a11.71,11.71,0,0,1,3.6-1.64,16.27,16.27,0,0,1,4.3-.57Q94.79,6.68,97.07,8.7ZM92.54,21.34A3.4,3.4,0,0,0,94,19.48V17.61H90.4c-2.18,0-3.27.72-3.27,2.15a1.87,1.87,0,0,0,.8,1.61,3.57,3.57,0,0,0,2.2.6A4.61,4.61,0,0,0,92.54,21.34Z"/><path class="cls-1" d="M104.16,0h5.31V25.27h-5.31Z"/><path class="cls-1" d="M13.79,54.11v1.15H1.72V37.77h11.7v1.15H3v6.89h9.32v1.13H3v7.17Z"/><path class="cls-1" d="M18.11,54.88a6,6,0,0,1-2.22-1.2l.57-1a6.7,6.7,0,0,0,2.06,1.13,7.87,7.87,0,0,0,2.64.45,5.18,5.18,0,0,0,2.91-.65,2.05,2.05,0,0,0,.94-1.8,1.69,1.69,0,0,0-.51-1.3,3.29,3.29,0,0,0-1.26-.7,20.15,20.15,0,0,0-2.08-.47,19.31,19.31,0,0,1-2.5-.6A4,4,0,0,1,17,47.69a2.83,2.83,0,0,1-.68-2,3.12,3.12,0,0,1,1.29-2.56,5.78,5.78,0,0,1,3.66-1,9.15,9.15,0,0,1,2.48.34,6.35,6.35,0,0,1,2,.93l-.57,1a6,6,0,0,0-1.83-.88,7.39,7.39,0,0,0-2.09-.3,4.62,4.62,0,0,0-2.75.68,2.09,2.09,0,0,0-.93,1.77A1.78,1.78,0,0,0,18.14,47a3.41,3.41,0,0,0,1.28.72,21,21,0,0,0,2.14.51,18.7,18.7,0,0,1,2.46.59,3.78,3.78,0,0,1,1.59,1,2.75,2.75,0,0,1,.65,1.93,3,3,0,0,1-1.35,2.59,6.41,6.41,0,0,1-3.8,1A9.33,9.33,0,0,1,18.11,54.88Z"/><path class="cls-1" d="M30.06,54.88a6.09,6.09,0,0,1-2.23-1.2l.58-1a6.58,6.58,0,0,0,2.06,1.13,7.79,7.79,0,0,0,2.64.45A5.22,5.22,0,0,0,36,53.61a2.07,2.07,0,0,0,.93-1.8,1.69,1.69,0,0,0-.51-1.3,3.22,3.22,0,0,0-1.26-.7,19.86,19.86,0,0,0-2.07-.47,18.91,18.91,0,0,1-2.5-.6A4,4,0,0,1,29,47.69a2.83,2.83,0,0,1-.67-2,3.14,3.14,0,0,1,1.28-2.56,5.78,5.78,0,0,1,3.66-1,9.1,9.1,0,0,1,2.48.34,6.52,6.52,0,0,1,2,.93l-.58,1a6,6,0,0,0-1.82-.88,7.4,7.4,0,0,0-2.1-.3,4.64,4.64,0,0,0-2.75.68,2.1,2.1,0,0,0-.92,1.77A1.78,1.78,0,0,0,30.08,47a3.38,3.38,0,0,0,1.29.72,21.32,21.32,0,0,0,2.13.51,19.31,19.31,0,0,1,2.47.59,3.8,3.8,0,0,1,1.58,1,2.7,2.7,0,0,1,.65,1.93,3,3,0,0,1-1.35,2.59,6.38,6.38,0,0,1-3.79,1A9.33,9.33,0,0,1,30.06,54.88Z"/><path class="cls-1" d="M52.72,49H41.5a5.36,5.36,0,0,0,.78,2.71,4.87,4.87,0,0,0,2,1.83,5.79,5.79,0,0,0,2.78.65,5.91,5.91,0,0,0,2.36-.46,4.65,4.65,0,0,0,1.82-1.36l.72.82a5.57,5.57,0,0,1-2.14,1.58,7.42,7.42,0,0,1-6.25-.3,6.14,6.14,0,0,1-2.39-2.35,6.69,6.69,0,0,1-.86-3.42,7.07,7.07,0,0,1,.81-3.41A6,6,0,0,1,43.33,43a6.51,6.51,0,0,1,6.38,0,6,6,0,0,1,2.22,2.34,7,7,0,0,1,.82,3.4Zm-8.67-5.21a4.68,4.68,0,0,0-1.76,1.72,5.55,5.55,0,0,0-.76,2.51h10a5.27,5.27,0,0,0-.75-2.5,5.08,5.08,0,0,0-6.72-1.73Z"/><path class="cls-1" d="M66.86,43.54a5.56,5.56,0,0,1,1.43,4.1v7.62H67V47.74a4.64,4.64,0,0,0-1.11-3.35,4.11,4.11,0,0,0-3.11-1.15,4.83,4.83,0,0,0-3.63,1.37,5.12,5.12,0,0,0-1.32,3.7v6.95H56.62v-13h1.2V45a5,5,0,0,1,2-2.15A6.14,6.14,0,0,1,63,42.12,5.23,5.23,0,0,1,66.86,43.54Z"/><path class="cls-1" d="M79.91,54.43a3.25,3.25,0,0,1-1.19.69,4.61,4.61,0,0,1-1.49.24,3.23,3.23,0,0,1-3.54-3.55V43.29h-2.4V42.21h2.4V39.37h1.24v2.84h4.15v1.08H74.93v8.4a2.73,2.73,0,0,0,.62,1.93,2.34,2.34,0,0,0,1.81.66,2.91,2.91,0,0,0,2-.72Z"/><path class="cls-1" d="M83.28,38.75A.93.93,0,0,1,83,38a1,1,0,0,1,1-1,1,1,0,0,1,.73.28A1,1,0,0,1,85,38a1,1,0,0,1-1.75.73Zm.1,3.46h1.25v13H83.38Z"/><path class="cls-1" d="M98,43.35A4.79,4.79,0,0,1,99.32,47v8.27h-1.2V52.93a4.25,4.25,0,0,1-1.82,1.79,6,6,0,0,1-2.88.64,5.26,5.26,0,0,1-3.43-1,3.54,3.54,0,0,1-.1-5.33,5.54,5.54,0,0,1,3.71-1h4.47V46.94a3.72,3.72,0,0,0-1-2.78,4,4,0,0,0-2.89-.95,7,7,0,0,0-2.49.45,6.25,6.25,0,0,0-2,1.2l-.62-.9a7,7,0,0,1,2.35-1.36,8.6,8.6,0,0,1,2.87-.48A5.18,5.18,0,0,1,98,43.35ZM96.36,53.58a4.51,4.51,0,0,0,1.71-2.17V49H93.63a4.46,4.46,0,0,0-2.79.7A2.34,2.34,0,0,0,90,51.59a2.39,2.39,0,0,0,1,2,4.26,4.26,0,0,0,2.67.73A4.91,4.91,0,0,0,96.36,53.58Z"/><path class="cls-1" d="M104.47,36.72h1.25V55.26h-1.25Z"/><path class="cls-1" d="M134.35,55.26l0-15L127,52.93h-.63l-7.32-12.59V55.26h-1.25V37.77h1.08l7.82,13.52,7.82-13.52h1.05l0,17.49Z"/><path class="cls-1" d="M152.32,49H141.1a5.36,5.36,0,0,0,.78,2.71,4.87,4.87,0,0,0,2,1.83,5.79,5.79,0,0,0,2.78.65,5.91,5.91,0,0,0,2.36-.46,4.65,4.65,0,0,0,1.82-1.36l.72.82a5.57,5.57,0,0,1-2.14,1.58,7.42,7.42,0,0,1-6.25-.3,6.14,6.14,0,0,1-2.39-2.35,6.69,6.69,0,0,1-.86-3.42,7.07,7.07,0,0,1,.81-3.41A6.06,6.06,0,0,1,142.92,43a6.19,6.19,0,0,1,3.2-.84,6.1,6.1,0,0,1,3.19.83,6,6,0,0,1,2.22,2.34,7,7,0,0,1,.82,3.4Zm-8.67-5.21a4.68,4.68,0,0,0-1.76,1.72,5.55,5.55,0,0,0-.76,2.51h10a5.27,5.27,0,0,0-.75-2.5,5.08,5.08,0,0,0-6.72-1.73Z"/><path class="cls-1" d="M167.81,36.72V55.26h-1.22V52.19a5.61,5.61,0,0,1-2.18,2.34,6.12,6.12,0,0,1-3.17.83,6.46,6.46,0,0,1-3.3-.85,6.14,6.14,0,0,1-2.31-2.35,6.88,6.88,0,0,1-.84-3.42,7,7,0,0,1,.84-3.44A6,6,0,0,1,157.94,43a6.55,6.55,0,0,1,3.3-.83,6,6,0,0,1,3.14.82,5.89,5.89,0,0,1,2.18,2.3V36.72ZM164,53.53a5,5,0,0,0,1.88-1.94,6.31,6.31,0,0,0,0-5.7,5.06,5.06,0,0,0-4.56-2.65,5.16,5.16,0,0,0-2.69.7,5,5,0,0,0-1.87,2,6.23,6.23,0,0,0,0,5.7,4.92,4.92,0,0,0,1.87,1.94,5.5,5.5,0,0,0,5.37,0Z"/><path class="cls-1" d="M173,38.75a1,1,0,0,1-.29-.71,1,1,0,0,1,1.74-.74,1,1,0,0,1,.3.72,1,1,0,0,1-1,1A1,1,0,0,1,173,38.75Zm.1,3.46h1.25v13h-1.25Z"/><path class="cls-1" d="M181.38,54.51A6.13,6.13,0,0,1,179,52.15a7.33,7.33,0,0,1,0-6.85A6,6,0,0,1,181.38,43a6.82,6.82,0,0,1,3.4-.83,6.55,6.55,0,0,1,2.86.61,5.23,5.23,0,0,1,2.09,1.78l-.93.68a4.41,4.41,0,0,0-1.73-1.46,5.29,5.29,0,0,0-2.29-.49,5.44,5.44,0,0,0-2.74.69,4.83,4.83,0,0,0-1.9,1.93,6.42,6.42,0,0,0,0,5.75,4.92,4.92,0,0,0,1.9,1.94,5.79,5.79,0,0,0,5,.2,4.58,4.58,0,0,0,1.73-1.46l.93.67a5.25,5.25,0,0,1-2.09,1.79,6.55,6.55,0,0,1-2.86.61A6.73,6.73,0,0,1,181.38,54.51Z"/><path class="cls-1" d="M193.37,38.75a.93.93,0,0,1-.3-.71,1,1,0,0,1,.3-.72,1.05,1.05,0,0,1,1.45,0,1,1,0,0,1,.3.72,1,1,0,0,1-1,1A1,1,0,0,1,193.37,38.75Zm.1,3.46h1.25v13h-1.25Z"/><path class="cls-1" d="M210.24,43.54a5.56,5.56,0,0,1,1.43,4.1v7.62h-1.25V47.74a4.64,4.64,0,0,0-1.12-3.35,4.1,4.1,0,0,0-3.11-1.15,4.81,4.81,0,0,0-3.62,1.37,5.12,5.12,0,0,0-1.32,3.7v6.95H200v-13h1.2V45a5,5,0,0,1,2-2.15,6.14,6.14,0,0,1,3.16-.77A5.23,5.23,0,0,1,210.24,43.54Z"/><path class="cls-1" d="M227.86,49H216.64a5.46,5.46,0,0,0,.77,2.71,5,5,0,0,0,2,1.83,6.3,6.3,0,0,0,5.15.19,4.54,4.54,0,0,0,1.81-1.36l.73.82a5.57,5.57,0,0,1-2.14,1.58,7.44,7.44,0,0,1-6.26-.3,6.18,6.18,0,0,1-2.38-2.35,6.69,6.69,0,0,1-.87-3.42,7,7,0,0,1,.82-3.41A6,6,0,0,1,218.46,43a6.53,6.53,0,0,1,6.39,0,6,6,0,0,1,2.22,2.34,7,7,0,0,1,.81,3.4Zm-8.67-5.21a4.71,4.71,0,0,0-1.77,1.72,5.68,5.68,0,0,0-.76,2.51h10a5.27,5.27,0,0,0-.75-2.5,4.9,4.9,0,0,0-4.25-2.35A5,5,0,0,0,219.19,43.83Z"/><path class="cls-1" d="M232.05,54.88a6,6,0,0,1-2.22-1.2l.58-1a6.58,6.58,0,0,0,2.06,1.13,7.77,7.77,0,0,0,2.63.45,5.18,5.18,0,0,0,2.91-.65,2.05,2.05,0,0,0,.94-1.8,1.69,1.69,0,0,0-.51-1.3,3.22,3.22,0,0,0-1.26-.7,19.55,19.55,0,0,0-2.08-.47,19.73,19.73,0,0,1-2.5-.6A4,4,0,0,1,231,47.69a2.83,2.83,0,0,1-.67-2,3.11,3.11,0,0,1,1.28-2.56,5.78,5.78,0,0,1,3.66-1,9.1,9.1,0,0,1,2.48.34,6.52,6.52,0,0,1,2,.93l-.58,1a6,6,0,0,0-1.82-.88,7.51,7.51,0,0,0-2.1-.3,4.64,4.64,0,0,0-2.75.68,2.09,2.09,0,0,0-.93,1.77,1.78,1.78,0,0,0,.53,1.37,3.38,3.38,0,0,0,1.29.72,20.65,20.65,0,0,0,2.13.51,18.7,18.7,0,0,1,2.46.59,3.78,3.78,0,0,1,1.59,1,2.75,2.75,0,0,1,.65,1.93,3,3,0,0,1-1.35,2.59,6.39,6.39,0,0,1-3.8,1A9.33,9.33,0,0,1,232.05,54.88Z"/></g></g></svg>